<svg width="120px" height="100%" viewBox="0 0 153 27" fill="none" xmlns="http://www.w3.org/2000/svg">
<path d="M2.72 20.552C2.18667 20.552 1.78133 20.4347 1.504 20.2C1.248 19.944 1.12 19.656 1.12 19.336C1.12 19.016 1.248 18.7387 1.504 18.504C1.78133 18.2693 2.18667 18.152 2.72 18.152C1.99467 18.152 1.504 18.0347 1.248 17.8C1.01333 17.5653 1.01333 17.3307 1.248 17.096C1.504 16.8613 1.99467 16.744 2.72 16.744C2.18667 16.744 1.792 16.6267 1.536 16.392C1.28 16.136 1.152 15.848 1.152 15.528C1.152 15.208 1.28 14.9307 1.536 14.696C1.792 14.44 2.18667 14.312 2.72 14.312C2.10133 14.312 1.632 14.1307 1.312 13.768C1.01333 13.384 0.864 12.9467 0.864 12.456C0.864 11.9653 1.01333 11.5387 1.312 11.176C1.632 10.792 2.10133 10.6 2.72 10.6C2.16533 10.6 1.74933 10.408 1.472 10.024C1.19467 9.61867 1.056 9.16 1.056 8.648C1.056 8.11467 1.19467 7.656 1.472 7.272C1.74933 6.86667 2.16533 6.664 2.72 6.664C2.208 6.64267 1.824 6.48267 1.568 6.184C1.33333 5.864 1.216 5.50133 1.216 5.096C1.216 4.69067 1.344 4.33867 1.6 4.04C1.856 3.72 2.24 3.56 2.752 3.56C2.752 2.92 2.90133 2.45067 3.2 2.152C3.49867 1.832 3.84 1.672 4.224 1.672C4.608 1.672 4.94933 1.832 5.248 2.152C5.54667 2.45067 5.696 2.92 5.696 3.56C5.696 2.96267 5.83467 2.51467 6.112 2.216C6.41067 1.91733 6.74133 1.768 7.104 1.768C7.46667 1.768 7.78667 1.91733 8.064 2.216C8.36267 2.51467 8.512 2.96267 8.512 3.56C9.17333 3.45333 9.632 3.528 9.888 3.784C10.144 4.01867 10.1867 4.296 10.016 4.616C9.86667 4.936 9.46133 5.14933 8.8 5.256C9.52533 5.256 10.0373 5.45867 10.336 5.864C10.656 6.248 10.7627 6.67467 10.656 7.144C10.5493 7.592 10.24 7.92267 9.728 8.136C10.112 8.2 10.4213 8.392 10.656 8.712C10.912 9.01067 11.0613 9.34133 11.104 9.704C11.5307 9.448 12.0213 9.34133 12.576 9.384C13.152 9.42667 13.6107 9.62933 13.952 9.992C13.9733 9.62933 14.1227 9.39467 14.4 9.288C14.1867 8.904 14.1973 8.49867 14.432 8.072C14.688 7.64533 15.1787 7.432 15.904 7.432C15.264 7.432 14.784 7.24 14.464 6.856C14.1653 6.472 14.016 6.024 14.016 5.512C14.016 5 14.1653 4.552 14.464 4.168C14.784 3.784 15.264 3.592 15.904 3.592C15.904 3.05867 16.0533 2.65333 16.352 2.376C16.6507 2.09867 16.992 1.96 17.376 1.96C17.76 1.93867 18.1013 2.06667 18.4 2.344C18.72 2.62133 18.88 3.02667 18.88 3.56C18.88 2.94133 18.9973 2.472 19.232 2.152C19.4667 1.832 19.7333 1.672 20.032 1.672C20.3307 1.672 20.5973 1.832 20.832 2.152C21.0667 2.472 21.184 2.94133 21.184 3.56C21.568 3.47467 21.8987 3.57067 22.176 3.848C22.4533 4.104 22.6453 4.44533 22.752 4.872C22.8587 5.29867 22.848 5.704 22.72 6.088C22.6133 6.45067 22.368 6.68533 21.984 6.792C22.6027 6.792 23.0613 7.00533 23.36 7.432C23.6587 7.83733 23.808 8.328 23.808 8.904C23.808 9.45867 23.6587 9.94933 23.36 10.376C23.0613 10.7813 22.6027 10.984 21.984 10.984C22.624 10.984 23.0933 11.176 23.392 11.56C23.712 11.944 23.872 12.392 23.872 12.904C23.872 13.416 23.712 13.864 23.392 14.248C23.0933 14.632 22.624 14.824 21.984 14.824C22.624 14.824 23.0933 15.0267 23.392 15.432C23.712 15.8373 23.872 16.3173 23.872 16.872C23.872 17.4053 23.712 17.8853 23.392 18.312C23.0933 18.7173 22.624 18.92 21.984 18.92C22.6667 18.92 23.1147 19.0267 23.328 19.24C23.5627 19.432 23.5627 19.6347 23.328 19.848C23.1147 20.0613 22.6667 20.168 21.984 20.168C22.4747 20.168 22.8373 20.3067 23.072 20.584C23.328 20.8613 23.456 21.1813 23.456 21.544C23.456 21.8853 23.328 22.1947 23.072 22.472C22.8373 22.728 22.4747 22.856 21.984 22.856C22.176 23.2827 22.1867 23.6667 22.016 24.008C21.8453 24.328 21.5893 24.5627 21.248 24.712C20.9067 24.8613 20.5547 24.8933 20.192 24.808C19.8507 24.7227 19.584 24.4667 19.392 24.04C19.4133 24.5947 19.2427 25.0107 18.88 25.288C18.5387 25.5867 18.1333 25.736 17.664 25.736C17.216 25.7573 16.8107 25.6293 16.448 25.352C16.1067 25.096 15.9253 24.6907 15.904 24.136C15.4773 24.136 15.1467 23.944 14.912 23.56C14.6773 23.176 14.528 22.728 14.464 22.216C14.4213 21.6827 14.4747 21.1813 14.624 20.712C14.7733 20.2213 15.0293 19.88 15.392 19.688C14.7307 19.7947 14.208 19.624 13.824 19.176C13.4613 18.7067 13.3227 18.2053 13.408 17.672C12.6187 17.928 11.8507 17.9173 11.104 17.64C11.1467 17.896 11.0827 18.12 10.912 18.312C10.7627 18.504 10.5387 18.6213 10.24 18.664C10.624 18.9413 10.6987 19.272 10.464 19.656C10.2293 20.0187 9.67467 20.2 8.8 20.2C9.632 20.2 10.176 20.3173 10.432 20.552C10.7093 20.7867 10.7093 21.0213 10.432 21.256C10.176 21.4907 9.632 21.608 8.8 21.608C9.312 21.608 9.696 21.7253 9.952 21.96C10.2293 22.1947 10.368 22.472 10.368 22.792C10.368 23.112 10.2293 23.4 9.952 23.656C9.696 23.8907 9.312 24.008 8.8 24.008C8.82133 24.8187 8.736 25.352 8.544 25.608C8.352 25.8853 8.14933 25.8853 7.936 25.608C7.744 25.352 7.63733 24.8293 7.616 24.04C7.616 24.552 7.49867 24.9253 7.264 25.16C7.02933 25.416 6.76267 25.544 6.464 25.544C6.16533 25.544 5.89867 25.416 5.664 25.16C5.42933 24.9253 5.312 24.552 5.312 24.04C5.312 24.872 5.19467 25.4267 4.96 25.704C4.72533 25.9813 4.49067 25.9813 4.256 25.704C4.02133 25.4267 3.904 24.872 3.904 24.04C3.904 24.5947 3.84 24.9893 3.712 25.224C3.584 25.48 3.43467 25.5013 3.264 25.288C3.11467 25.0747 2.976 24.5947 2.848 23.848C2.74133 23.08 2.69867 21.9813 2.72 20.552ZM30.1908 22.376C29.8281 22.4827 29.5188 22.4613 29.2628 22.312C29.0281 22.1627 28.8681 21.96 28.7828 21.704C28.6974 21.4267 28.7081 21.16 28.8148 20.904C28.9428 20.6267 29.1881 20.424 29.5508 20.296C29.1241 20.4453 28.7294 20.3493 28.3668 20.008C28.0254 19.6453 27.7694 19.1973 27.5988 18.664C27.4281 18.1093 27.3854 17.5973 27.4708 17.128C27.5561 16.6373 27.8121 16.328 28.2388 16.2C27.7481 16.3493 27.3748 16.3387 27.1188 16.168C26.8841 15.9973 26.8094 15.784 26.8948 15.528C27.0014 15.2507 27.3108 15.0267 27.8228 14.856C27.3961 15.0053 27.0228 14.9733 26.7028 14.76C26.3828 14.5253 26.1588 14.216 26.0308 13.832C25.9241 13.448 25.9348 13.0747 26.0628 12.712C26.1908 12.3493 26.4788 12.0933 26.9268 11.944C26.5428 12.072 26.2014 12.0293 25.9028 11.816C25.6254 11.5813 25.4228 11.2827 25.2948 10.92C25.1881 10.5573 25.1774 10.2053 25.2628 9.864C25.3694 9.52267 25.6148 9.288 25.9988 9.16C25.9988 8.712 26.1694 8.38133 26.5108 8.168C26.8734 7.95467 27.2894 7.848 27.7588 7.848C28.2281 7.848 28.6441 7.95467 29.0068 8.168C29.3694 8.38133 29.5508 8.712 29.5508 9.16C29.8068 8.904 30.1161 8.82933 30.4788 8.936C30.8414 9.04267 31.1828 9.256 31.5028 9.576C31.8228 9.87467 32.0254 10.216 32.1108 10.6C32.2174 10.9627 32.1428 11.272 31.8868 11.528C32.1428 11.4427 32.3988 11.5387 32.6548 11.816C32.9321 12.072 33.1668 12.4347 33.3588 12.904C33.5508 13.352 33.6894 13.8 33.7748 14.248C33.9668 14.0773 34.1801 13.96 34.4148 13.896C34.6494 13.8107 34.8734 13.8107 35.0868 13.896C34.9161 13.6827 34.8414 13.3733 34.8628 12.968C34.8841 12.5413 34.9694 12.1147 35.1188 11.688C35.2894 11.24 35.4921 10.8773 35.7268 10.6C35.9828 10.3227 36.2494 10.2267 36.5268 10.312C36.4201 10.0347 36.5268 9.768 36.8468 9.512C37.1668 9.23467 37.5614 9.02133 38.0308 8.872C38.5001 8.72267 38.9374 8.66933 39.3428 8.712C39.7694 8.73333 40.0254 8.88267 40.1108 9.16C40.5801 8.94667 40.9534 8.94667 41.2308 9.16C41.5081 9.352 41.6361 9.61867 41.6147 9.96C41.5934 10.3013 41.3481 10.5787 40.8787 10.792C41.2414 10.6853 41.5508 10.7387 41.8068 10.952C42.0841 11.1653 42.2761 11.4533 42.3828 11.816C42.4894 12.1573 42.4894 12.488 42.3828 12.808C42.2974 13.128 42.0734 13.352 41.7108 13.48C41.9668 13.3733 42.2014 13.4267 42.4148 13.64C42.6494 13.832 42.8201 14.0773 42.9268 14.376C43.0974 14.248 43.2894 14.1733 43.5028 14.152C43.7161 14.1093 43.9188 14.1413 44.1108 14.248C43.9614 13.9707 43.9294 13.608 44.0148 13.16C44.1001 12.712 44.2601 12.328 44.4948 12.008C44.7508 11.688 45.0281 11.5707 45.3268 11.656C45.0494 11.4213 44.9428 11.1227 45.0068 10.76C45.0921 10.376 45.2734 10.024 45.5508 9.704C45.8281 9.36267 46.1481 9.128 46.5108 9C46.8734 8.872 47.1934 8.92533 47.4708 9.16C47.4494 8.776 47.6308 8.488 48.0148 8.296C48.3988 8.104 48.8361 8.008 49.3268 8.008C49.8174 7.98667 50.2548 8.072 50.6388 8.264C51.0228 8.456 51.2148 8.744 51.2148 9.128C51.6201 9.256 51.8654 9.55467 51.9508 10.024C52.0361 10.4933 51.9934 10.9947 51.8228 11.528C51.6521 12.0613 51.3961 12.4987 51.0548 12.84C50.7348 13.1813 50.3721 13.288 49.9668 13.16C50.4574 13.3307 50.7561 13.544 50.8628 13.8C50.9694 14.0347 50.9054 14.2267 50.6708 14.376C50.4361 14.5253 50.0734 14.5253 49.5828 14.376C50.1588 14.568 50.5001 14.8347 50.6068 15.176C50.7134 15.5173 50.6174 15.8053 50.3188 16.04C50.0414 16.2533 49.6148 16.264 49.0388 16.072C49.4228 16.2 49.6681 16.424 49.7748 16.744C49.8814 17.064 49.8708 17.4053 49.7428 17.768C49.6361 18.1093 49.4441 18.3867 49.1668 18.6C48.8894 18.8133 48.5588 18.856 48.1748 18.728C48.7081 18.8987 49.0174 19.1547 49.1028 19.496C49.1881 19.8373 49.0921 20.1253 48.8148 20.36C48.5588 20.5733 48.1748 20.5947 47.6628 20.424C48.0468 20.552 48.2814 20.7973 48.3668 21.16C48.4521 21.5227 48.4308 21.9067 48.3028 22.312C48.1961 22.7173 47.9934 23.048 47.6948 23.304C47.4174 23.5387 47.0868 23.592 46.7028 23.464C46.8734 23.8267 46.8628 24.1253 46.6708 24.36C46.5001 24.5947 46.2654 24.7227 45.9668 24.744C45.6681 24.744 45.4228 24.5627 45.2308 24.2C45.1668 24.5413 44.9214 24.7547 44.4948 24.84C44.0894 24.904 43.6308 24.8827 43.1188 24.776C42.6281 24.648 42.2121 24.4667 41.8708 24.232C41.5294 23.976 41.3908 23.6773 41.4548 23.336C41.2201 23.4213 40.9854 23.336 40.7508 23.08C40.5161 22.8027 40.3241 22.4613 40.1748 22.056C40.0254 21.6507 39.9508 21.2667 39.9508 20.904C39.9721 20.5413 40.1108 20.3173 40.3668 20.232C40.0254 20.36 39.6734 20.1787 39.3108 19.688C38.9694 19.176 38.7134 18.6107 38.5428 17.992C38.2441 18.2053 37.9454 18.2373 37.6468 18.088C37.8814 18.1733 38.0201 18.3973 38.0628 18.76C38.1054 19.1013 38.0628 19.496 37.9348 19.944C37.8281 20.392 37.6681 20.8293 37.4548 21.256C37.2628 21.6827 37.0388 22.024 36.7828 22.28C36.5481 22.5147 36.3134 22.5893 36.0788 22.504C36.5908 22.696 36.8894 22.9307 36.9748 23.208C37.0601 23.4853 36.9748 23.7093 36.7188 23.88C36.4841 24.0293 36.1108 24.008 35.5988 23.816C35.7694 24.2853 35.7908 24.6373 35.6628 24.872C35.5348 25.0853 35.3534 25.1387 35.1188 25.032C34.8841 24.9467 34.6814 24.6693 34.5108 24.2C34.5108 24.648 34.3294 24.968 33.9668 25.16C33.6041 25.3733 33.1668 25.4267 32.6548 25.32C32.1428 25.2133 31.6521 24.9253 31.1828 24.456C30.7348 23.9653 30.4041 23.272 30.1908 22.376ZM54.0823 22.632C53.8476 22.632 53.6449 22.4933 53.4743 22.216C53.3249 21.9173 53.2183 21.544 53.1543 21.096C53.0903 20.648 53.0689 20.2 53.0903 19.752C53.1329 19.304 53.2183 18.9307 53.3463 18.632C53.4743 18.312 53.6663 18.152 53.9223 18.152C53.8156 17.96 53.8689 17.7253 54.0823 17.448C54.2956 17.1707 54.5943 16.904 54.9783 16.648C55.3836 16.3707 55.7996 16.136 56.2263 15.944C56.6743 15.752 57.0689 15.6347 57.4103 15.592C57.7516 15.5493 57.9756 15.624 58.0823 15.816C58.0396 15.5387 58.1356 15.2933 58.3703 15.08C58.6263 14.8667 58.9463 14.7067 59.3303 14.6C59.7143 14.4933 60.0876 14.4507 60.4503 14.472C60.8343 14.4933 61.1329 14.6 61.3463 14.792C61.2609 14.4507 61.3676 14.0773 61.6663 13.672C61.1329 13.6507 60.6423 13.5653 60.1943 13.416C59.7463 13.2453 59.5329 13.0213 59.5543 12.744C59.5543 13.064 59.4263 13.2987 59.1703 13.448C58.9143 13.5973 58.6156 13.672 58.2743 13.672C57.9543 13.672 57.6663 13.5973 57.4103 13.448C57.1543 13.2987 57.0263 13.064 57.0263 12.744C56.8343 13.064 56.5889 13.2453 56.2903 13.288C55.9916 13.3307 55.6929 13.2773 55.3943 13.128C55.1169 12.9573 54.9143 12.7333 54.7863 12.456C54.6583 12.1573 54.6903 11.848 54.8823 11.528C54.5196 11.1227 54.3809 10.76 54.4663 10.44C54.5729 10.0987 54.7969 9.896 55.1383 9.832C55.4796 9.768 55.8316 9.93867 56.1943 10.344C55.9383 9.85333 55.8743 9.46933 56.0023 9.192C56.1303 8.91467 56.3329 8.808 56.6102 8.872C56.9089 8.91467 57.1863 9.192 57.4423 9.704C57.3569 9.36267 57.3996 9.07467 57.5703 8.84C57.7623 8.584 58.0076 8.41333 58.3063 8.328C58.6263 8.24267 58.9249 8.25333 59.2023 8.36C59.5009 8.46667 59.6929 8.69067 59.7783 9.032C59.7569 8.60533 59.8956 8.28533 60.1943 8.072C60.4929 7.83733 60.8449 7.70933 61.2503 7.688C61.6556 7.66667 62.0183 7.752 62.3383 7.944C62.6583 8.136 62.8289 8.44533 62.8503 8.872C62.8929 8.296 63.0423 7.92267 63.2983 7.752C63.5543 7.58133 63.7889 7.60267 64.0023 7.816C64.2156 8.02933 64.3009 8.424 64.2583 9C64.3649 8.616 64.5676 8.37067 64.8663 8.264C65.1649 8.136 65.4743 8.12533 65.7943 8.232C66.1356 8.31733 66.4023 8.49867 66.5943 8.776C66.7863 9.032 66.8289 9.34133 66.7223 9.704C66.9569 9.40533 67.2343 9.26667 67.5543 9.288C67.8743 9.288 68.1623 9.39467 68.4183 9.608C68.6956 9.8 68.8663 10.056 68.9303 10.376C69.0156 10.696 68.9409 11.0053 68.7063 11.304C69.2183 11.0693 69.6343 11.0693 69.9543 11.304C70.2743 11.5387 70.4129 11.848 70.3703 12.232C70.3276 12.616 70.0503 12.9253 69.5382 13.16C69.9649 13.1387 70.2849 13.3307 70.4983 13.736C70.7329 14.12 70.8609 14.568 70.8823 15.08C70.9249 15.592 70.8503 16.0613 70.6583 16.488C70.4663 16.8933 70.1569 17.1067 69.7303 17.128C70.0716 17.128 70.3276 17.2667 70.4983 17.544C70.6689 17.8 70.7543 18.1093 70.7543 18.472C70.7543 18.8133 70.6689 19.1227 70.4983 19.4C70.3276 19.656 70.0716 19.784 69.7303 19.784C70.1143 19.784 70.4236 19.9333 70.6583 20.232C70.8929 20.5093 71.0529 20.872 71.1383 21.32C71.2449 21.7467 71.2663 22.184 71.2023 22.632C71.1383 23.08 70.9996 23.464 70.7863 23.784C70.5729 24.0827 70.2849 24.2427 69.9223 24.264C69.9009 24.6053 69.7303 24.8827 69.4103 25.096C69.1116 25.3093 68.7383 25.448 68.2903 25.512C67.8423 25.576 67.3836 25.5653 66.9143 25.48C66.4663 25.416 66.0929 25.2667 65.7943 25.032C65.4956 24.8187 65.3463 24.5413 65.3463 24.2C65.3463 24.7333 65.2289 25.096 64.9943 25.288C64.7596 25.48 64.5249 25.48 64.2903 25.288C64.0556 25.1173 63.9383 24.7547 63.9383 24.2C63.6609 24.5413 63.3729 24.7227 63.0743 24.744C62.7756 24.7653 62.5196 24.68 62.3063 24.488C62.1143 24.296 62.0289 24.0613 62.0503 23.784C61.7089 24.0613 61.1543 24.2533 60.3863 24.36C59.6396 24.4667 58.7223 24.4027 57.6343 24.168C56.5463 23.912 55.3623 23.4 54.0823 22.632ZM62.2743 21.064C62.0823 20.9573 62.0076 20.7653 62.0503 20.488C62.0929 20.2107 62.1889 19.912 62.3383 19.592C62.5089 19.272 62.7009 19.0053 62.9143 18.792C62.7223 18.7493 62.5409 18.6533 62.3703 18.504C62.2209 18.3547 62.1249 18.184 62.0823 17.992C61.9329 18.2053 61.7089 18.3867 61.4103 18.536C61.1116 18.664 60.8023 18.7387 60.4823 18.76C60.1836 18.7813 59.9383 18.728 59.7463 18.6C59.8103 18.792 59.7676 18.9627 59.6183 19.112C59.9169 19.2187 60.2369 19.4107 60.5783 19.688C60.9409 19.9653 61.2716 20.2427 61.5703 20.52C61.8689 20.7973 62.1036 20.9787 62.2743 21.064ZM73.9885 24.392C73.6472 24.3707 73.3912 24.232 73.2205 23.976C73.0498 23.72 72.9645 23.4213 72.9645 23.08C72.9858 22.7387 73.0818 22.4507 73.2525 22.216C73.4445 21.96 73.7112 21.832 74.0525 21.832C73.6472 21.832 73.3378 21.64 73.1245 21.256C72.9112 20.8507 72.8045 20.392 72.8045 19.88C72.8045 19.3467 72.9112 18.888 73.1245 18.504C73.3378 18.0987 73.6472 17.896 74.0525 17.896C73.6685 17.896 73.3805 17.6933 73.1885 17.288C73.0178 16.8613 72.9325 16.3813 72.9325 15.848C72.9325 15.3147 73.0178 14.8453 73.1885 14.44C73.3805 14.0133 73.6685 13.8 74.0525 13.8C73.6045 13.8 73.2632 13.672 73.0285 13.416C72.8152 13.16 72.7085 12.872 72.7085 12.552C72.7085 12.2107 72.8152 11.912 73.0285 11.656C73.2632 11.4 73.6045 11.272 74.0525 11.272C73.7325 11.208 73.5085 11.0587 73.3805 10.824C73.2525 10.5893 73.2098 10.3333 73.2525 10.056C73.2952 9.77867 73.4125 9.55467 73.6045 9.384C73.7965 9.192 74.0525 9.11733 74.3725 9.16C74.3725 8.79733 74.5325 8.50933 74.8525 8.296C75.1725 8.08267 75.5778 7.944 76.0685 7.88C76.5592 7.79467 77.0392 7.79467 77.5085 7.88C77.9992 7.944 78.4045 8.08267 78.7245 8.296C79.0445 8.50933 79.2045 8.79733 79.2045 9.16C79.4605 8.88267 79.7485 8.79733 80.0685 8.904C80.4098 8.98933 80.6872 9.16 80.9005 9.416C81.1138 9.07467 81.4445 8.88267 81.8925 8.84C82.3405 8.776 82.7032 8.98933 82.9805 9.48C82.9165 9.11733 83.0232 8.81867 83.3005 8.584C83.5992 8.328 83.9618 8.15733 84.3885 8.072C84.8152 7.98667 85.2098 8.008 85.5725 8.136C85.9352 8.24267 86.1485 8.47733 86.2125 8.84C86.3618 8.584 86.6072 8.456 86.9485 8.456C87.3112 8.43467 87.6952 8.50933 88.1005 8.68C88.5272 8.85067 88.9218 9.064 89.2845 9.32C89.6472 9.576 89.9138 9.85333 90.0845 10.152C90.2765 10.4507 90.2978 10.728 90.1485 10.984C90.6178 10.7707 90.9912 10.7493 91.2685 10.92C91.5458 11.0907 91.6632 11.3467 91.6205 11.688C91.5992 12.008 91.3538 12.2747 90.8845 12.488C91.2685 12.4453 91.5778 12.5733 91.8125 12.872C92.0472 13.1707 92.1858 13.5333 92.2285 13.96C92.2925 14.3653 92.2498 14.7493 92.1005 15.112C91.9512 15.4533 91.6845 15.6453 91.3005 15.688C91.7058 15.688 92.0045 15.912 92.1965 16.36C92.4098 16.7867 92.5165 17.288 92.5165 17.864C92.5165 18.44 92.4098 18.952 92.1965 19.4C92.0045 19.8267 91.7058 20.04 91.3005 20.04C91.7485 20.04 92.0365 20.1893 92.1645 20.488C92.3138 20.7867 92.3138 21.0853 92.1645 21.384C92.0365 21.6827 91.7485 21.832 91.3005 21.832C91.6845 21.8747 91.9512 22.0347 92.1005 22.312C92.2712 22.568 92.3352 22.856 92.2925 23.176C92.2498 23.4747 92.1112 23.7307 91.8765 23.944C91.6632 24.1573 91.3645 24.2427 90.9805 24.2C90.9805 24.5413 90.8098 24.808 90.4685 25C90.1485 25.1707 89.7645 25.256 89.3165 25.256C88.8898 25.256 88.5058 25.1707 88.1645 25C87.8445 24.808 87.6845 24.5413 87.6845 24.2C87.6845 24.584 87.5458 24.872 87.2685 25.064C86.9912 25.2773 86.6605 25.384 86.2765 25.384C85.9138 25.4053 85.5938 25.32 85.3165 25.128C85.0392 24.9573 84.8898 24.6693 84.8685 24.264C84.6125 24.264 84.4205 24.0507 84.2925 23.624C84.1858 23.1973 84.1432 22.7067 84.1645 22.152C84.2072 21.5973 84.3032 21.1173 84.4525 20.712C84.6018 20.2853 84.8045 20.072 85.0605 20.072C84.7192 20.072 84.4525 19.944 84.2605 19.688C84.0685 19.4107 83.9618 19.0907 83.9405 18.728C83.9192 18.3653 83.9725 18.024 84.1005 17.704C84.2498 17.384 84.4738 17.1813 84.7725 17.096C84.4952 17.0747 84.2285 16.9253 83.9725 16.648C83.7165 16.3493 83.4818 15.9973 83.2685 15.592C83.0765 15.1653 82.9592 14.7493 82.9165 14.344C82.6605 14.5573 82.3512 14.7067 81.9885 14.792C81.6472 14.8773 81.3378 14.8773 81.0605 14.792C81.1672 15.048 81.1992 15.336 81.1565 15.656C81.1138 15.976 81.0178 16.2533 80.8685 16.488C80.7192 16.7227 80.5165 16.8293 80.2605 16.808C80.6445 16.808 80.8898 16.9147 80.9965 17.128C81.1245 17.32 81.1245 17.5227 80.9965 17.736C80.8898 17.9493 80.6445 18.056 80.2605 18.056C80.5805 18.056 80.8258 18.2587 80.9965 18.664C81.1672 19.0693 81.2525 19.5387 81.2525 20.072C81.2525 20.6053 81.1672 21.0853 80.9965 21.512C80.8258 21.9173 80.5805 22.12 80.2605 22.12C80.5805 22.312 80.7512 22.568 80.7725 22.888C80.7938 23.1867 80.7192 23.4747 80.5485 23.752C80.3778 24.0293 80.1432 24.232 79.8445 24.36C79.5458 24.4667 79.2365 24.4133 78.9165 24.2C78.9165 24.52 78.7565 24.776 78.4365 24.968C78.1165 25.1387 77.7112 25.256 77.2205 25.32C76.7512 25.4053 76.2712 25.416 75.7805 25.352C75.2898 25.3093 74.8738 25.2027 74.5325 25.032C74.1912 24.8827 74.0098 24.6693 73.9885 24.392ZM99.7565 23.304C99.3298 23.4747 98.9885 23.4747 98.7325 23.304C98.4978 23.112 98.4018 22.8773 98.4445 22.6C98.5085 22.3013 98.7538 22.056 99.1805 21.864C98.8818 21.992 98.5725 21.9387 98.2525 21.704C97.9538 21.4693 97.6765 21.1387 97.4205 20.712C97.1645 20.2853 96.9725 19.8267 96.8445 19.336C96.7165 18.8453 96.6738 18.408 96.7165 18.024C96.7805 17.64 96.9618 17.384 97.2605 17.256C96.7272 17.4907 96.3218 17.5333 96.0445 17.384C95.7885 17.2133 95.6925 16.9787 95.7565 16.68C95.8418 16.36 96.1512 16.0827 96.6845 15.848C96.1938 16.0613 95.8205 16.0933 95.5645 15.944C95.3085 15.7947 95.2125 15.5813 95.2765 15.304C95.3618 15.0053 95.6498 14.76 96.1405 14.568C95.7992 14.696 95.4685 14.6427 95.1485 14.408C94.8498 14.152 94.6152 13.8213 94.4445 13.416C94.2738 12.9893 94.2098 12.584 94.2525 12.2C94.2952 11.7947 94.4872 11.5173 94.8285 11.368C94.2525 11.6027 93.8045 11.6133 93.4845 11.4C93.1645 11.1867 93.0365 10.8987 93.1005 10.536C93.1858 10.152 93.5165 9.84267 94.0925 9.608C93.8792 9.07467 93.8152 8.69067 93.9005 8.456C94.0072 8.2 94.1778 8.12533 94.4125 8.232C94.6685 8.33867 94.9032 8.648 95.1165 9.16C95.1165 8.75467 95.2338 8.456 95.4685 8.264C95.7032 8.05067 95.9698 7.944 96.2685 7.944C96.5672 7.944 96.8232 8.05067 97.0365 8.264C97.2712 8.456 97.3885 8.75467 97.3885 9.16C97.4738 8.75467 97.6445 8.47733 97.9005 8.328C98.1778 8.15733 98.4658 8.104 98.7645 8.168C99.0632 8.232 99.3085 8.392 99.5005 8.648C99.6925 8.88267 99.7458 9.21333 99.6605 9.64C100.087 9.49067 100.45 9.52267 100.749 9.736C101.069 9.94933 101.293 10.248 101.421 10.632C101.57 11.016 101.581 11.3893 101.453 11.752C101.346 12.1147 101.079 12.3707 100.653 12.52C100.973 12.4133 101.261 12.456 101.517 12.648C101.773 12.84 101.954 13.1067 102.061 13.448C102.189 13.7893 102.21 14.12 102.125 14.44C102.061 14.7387 101.858 14.9413 101.517 15.048C101.901 14.92 102.21 14.9413 102.445 15.112C102.701 15.2827 102.85 15.5067 102.893 15.784C102.999 15.784 103.106 15.816 103.213 15.88C103.234 15.5813 103.341 15.336 103.533 15.144C103.746 14.9307 104.002 14.8667 104.301 14.952C104.045 14.8667 103.906 14.6533 103.885 14.312C103.885 13.9493 103.949 13.5653 104.077 13.16C104.226 12.7333 104.418 12.3813 104.653 12.104C104.887 11.8267 105.122 11.7307 105.357 11.816C104.781 11.624 104.439 11.3787 104.333 11.08C104.226 10.76 104.311 10.5147 104.589 10.344C104.866 10.1733 105.293 10.184 105.869 10.376C105.762 10.0987 105.847 9.832 106.125 9.576C106.402 9.32 106.754 9.11733 107.181 8.968C107.629 8.79733 108.045 8.72267 108.429 8.744C108.813 8.744 109.058 8.88267 109.165 9.16C109.165 8.69067 109.282 8.38133 109.517 8.232C109.773 8.08267 110.029 8.08267 110.285 8.232C110.541 8.38133 110.669 8.69067 110.669 9.16C110.925 9.13867 111.127 9.24533 111.277 9.48C111.426 9.71467 111.511 9.992 111.533 10.312C111.575 10.632 111.533 10.92 111.405 11.176C111.298 11.432 111.117 11.5707 110.861 11.592C111.245 11.7627 111.479 12.0187 111.565 12.36C111.65 12.7013 111.618 13.0427 111.469 13.384C111.341 13.7253 111.127 13.992 110.829 14.184C110.53 14.3547 110.178 14.3653 109.773 14.216C110.071 14.3227 110.221 14.5787 110.221 14.984C110.242 15.368 110.157 15.784 109.965 16.232C109.794 16.6587 109.559 17.0107 109.26 17.288C108.983 17.5653 108.706 17.64 108.429 17.512C108.941 17.7253 109.239 17.992 109.325 18.312C109.41 18.6107 109.314 18.8453 109.037 19.016C108.759 19.1653 108.354 19.1333 107.821 18.92C108.269 19.112 108.525 19.432 108.589 19.88C108.653 20.3067 108.589 20.7547 108.397 21.224C108.205 21.6933 107.927 22.0667 107.565 22.344C107.202 22.6 106.797 22.6427 106.349 22.472C106.498 22.728 106.434 23.016 106.157 23.336C105.901 23.6347 105.549 23.9013 105.101 24.136C104.674 24.3707 104.258 24.5093 103.853 24.552C103.447 24.5947 103.17 24.4773 103.021 24.2C103.021 24.52 102.882 24.7653 102.605 24.936C102.327 25.0853 101.997 25.128 101.613 25.064C101.229 25.0213 100.855 24.8613 100.493 24.584C100.151 24.2853 99.9058 23.8587 99.7565 23.304ZM115.369 3.848C114.921 3.74133 114.611 3.54933 114.441 3.272C114.27 2.99467 114.217 2.728 114.281 2.472C114.366 2.19467 114.547 1.98133 114.825 1.832C115.102 1.68267 115.475 1.672 115.945 1.8C115.945 1.48 116.094 1.23467 116.393 1.064C116.691 0.871999 117.065 0.743999 117.513 0.679998C117.961 0.615999 118.409 0.615999 118.857 0.679998C119.326 0.743999 119.71 0.871999 120.009 1.064C120.307 1.23467 120.457 1.48 120.457 1.8C120.905 1.736 121.257 1.832 121.513 2.088C121.769 2.32267 121.929 2.632 121.993 3.016C122.057 3.37867 121.993 3.72 121.801 4.04C121.63 4.36 121.331 4.552 120.905 4.616C121.011 4.872 120.937 5.128 120.681 5.384C120.446 5.61867 120.126 5.82133 119.721 5.992C119.337 6.14133 118.963 6.216 118.601 6.216C118.259 6.19467 118.046 6.056 117.961 5.8C117.961 6.14133 117.833 6.38667 117.577 6.536C117.321 6.68533 117.022 6.70667 116.681 6.6C116.339 6.472 116.041 6.19467 115.785 5.768C115.529 5.32 115.39 4.68 115.369 3.848ZM115.209 24.136C114.867 24.136 114.601 23.976 114.409 23.656C114.217 23.336 114.078 22.9413 113.993 22.472C113.929 22.0027 113.929 21.5333 113.993 21.064C114.078 20.5947 114.217 20.2107 114.409 19.912C114.601 19.592 114.867 19.432 115.209 19.432C114.782 19.432 114.462 19.2613 114.249 18.92C114.035 18.5573 113.929 18.152 113.929 17.704C113.929 17.256 114.035 16.8613 114.249 16.52C114.462 16.1573 114.782 15.976 115.209 15.976C114.846 15.976 114.558 15.816 114.345 15.496C114.131 15.176 113.982 14.7813 113.897 14.312C113.833 13.8427 113.833 13.3733 113.897 12.904C113.982 12.4347 114.131 12.0507 114.345 11.752C114.558 11.432 114.846 11.272 115.209 11.272C114.825 11.272 114.537 11.1653 114.345 10.952C114.174 10.7173 114.078 10.4613 114.057 10.184C114.057 9.88533 114.153 9.62933 114.345 9.416C114.537 9.20267 114.825 9.096 115.209 9.096C115.209 8.712 115.337 8.43467 115.593 8.264C115.87 8.072 116.179 7.98667 116.521 8.008C116.883 8.008 117.193 8.104 117.449 8.296C117.705 8.488 117.833 8.776 117.833 9.16C117.833 8.84 117.95 8.60533 118.185 8.456C118.419 8.30667 118.697 8.232 119.017 8.232C119.337 8.232 119.614 8.30667 119.849 8.456C120.105 8.60533 120.233 8.84 120.233 9.16C120.553 8.904 120.83 8.82933 121.065 8.936C121.321 9.04267 121.459 9.224 121.481 9.48C121.523 9.736 121.385 9.992 121.065 10.248C121.449 10.248 121.726 10.4293 121.897 10.792C122.089 11.1547 122.185 11.5707 122.185 12.04C122.185 12.5093 122.089 12.9253 121.897 13.288C121.726 13.6293 121.449 13.8 121.065 13.8C121.406 13.8 121.662 13.9813 121.833 14.344C122.003 14.7067 122.089 15.1227 122.089 15.592C122.089 16.0613 122.003 16.4773 121.833 16.84C121.662 17.2027 121.406 17.384 121.065 17.384C121.321 17.384 121.523 17.5547 121.673 17.896C121.843 18.216 121.95 18.632 121.993 19.144C122.057 19.6347 122.057 20.1253 121.993 20.616C121.95 21.1067 121.843 21.5227 121.673 21.864C121.523 22.184 121.321 22.344 121.065 22.344C121.534 22.4293 121.822 22.6427 121.929 22.984C122.035 23.304 121.982 23.6133 121.769 23.912C121.555 24.1893 121.214 24.2853 120.745 24.2C120.745 24.7333 120.638 25.0853 120.425 25.256C120.211 25.448 119.998 25.448 119.785 25.256C119.571 25.0853 119.465 24.7333 119.465 24.2C119.465 24.648 119.251 24.9893 118.825 25.224C118.419 25.4587 117.929 25.5653 117.353 25.544C116.798 25.544 116.307 25.4267 115.881 25.192C115.454 24.9573 115.23 24.6053 115.209 24.136ZM130.841 24.264C130.713 24.84 130.521 25.192 130.265 25.32C130.009 25.448 129.796 25.3947 129.625 25.16C129.476 24.9253 129.465 24.5307 129.593 23.976C129.444 24.296 129.199 24.4773 128.857 24.52C128.516 24.5413 128.175 24.4773 127.833 24.328C127.513 24.1573 127.257 23.9333 127.065 23.656C126.895 23.3573 126.884 23.0373 127.033 22.696C126.692 22.5893 126.468 22.408 126.361 22.152C126.276 21.8747 126.276 21.608 126.361 21.352C126.468 21.0747 126.639 20.8613 126.873 20.712C127.129 20.5627 127.428 20.552 127.769 20.68C127.769 20.36 127.897 20.1253 128.153 19.976C128.409 19.8053 128.697 19.72 129.017 19.72C129.359 19.72 129.657 19.8053 129.913 19.976C130.169 20.1253 130.297 20.36 130.297 20.68C130.361 20.36 130.585 20.136 130.969 20.008C131.353 19.88 131.801 19.8373 132.313 19.88C132.825 19.9227 133.284 20.04 133.689 20.232C133.711 20.0827 133.775 19.9653 133.881 19.88C133.775 19.688 133.775 19.4533 133.881 19.176C133.647 19.368 133.305 19.464 132.857 19.464C132.409 19.464 131.951 19.3893 131.481 19.24C131.033 19.0907 130.671 18.888 130.393 18.632C130.116 18.376 130.009 18.0987 130.073 17.8C129.924 18.2267 129.711 18.472 129.433 18.536C129.156 18.6 128.932 18.5253 128.761 18.312C128.591 18.0773 128.58 17.736 128.729 17.288C128.495 17.4587 128.217 17.4587 127.897 17.288C127.599 17.096 127.289 16.8187 126.969 16.456C126.671 16.0933 126.415 15.6987 126.201 15.272C125.988 14.8453 125.86 14.4507 125.817 14.088C125.775 13.7253 125.871 13.4693 126.105 13.32C125.871 13.192 125.764 12.9573 125.785 12.616C125.828 12.2747 125.945 11.9227 126.137 11.56C126.351 11.1973 126.585 10.9093 126.841 10.696C127.119 10.4827 127.375 10.44 127.609 10.568C127.396 10.2053 127.375 9.88533 127.545 9.608C127.737 9.33067 127.993 9.18133 128.313 9.16C128.633 9.11733 128.911 9.27733 129.145 9.64C129.081 9.29867 129.177 9 129.433 8.744C129.711 8.488 130.063 8.28533 130.489 8.136C130.916 7.98667 131.353 7.912 131.801 7.912C132.271 7.89067 132.676 7.95467 133.017 8.104C133.359 8.25333 133.561 8.49867 133.625 8.84C133.668 8.43467 133.828 8.15733 134.105 8.008C134.404 7.83733 134.713 7.77333 135.033 7.816C135.375 7.85867 135.663 7.99733 135.897 8.232C136.132 8.46667 136.217 8.776 136.153 9.16C136.281 8.75467 136.463 8.52 136.697 8.456C136.953 8.37067 137.167 8.424 137.337 8.616C137.508 8.808 137.529 9.10667 137.401 9.512C137.572 9.192 137.839 9.032 138.201 9.032C138.564 9.032 138.916 9.128 139.257 9.32C139.62 9.512 139.887 9.768 140.057 10.088C140.249 10.408 140.249 10.728 140.057 11.048C140.548 11.1973 140.825 11.432 140.889 11.752C140.975 12.072 140.889 12.3493 140.633 12.584C140.399 12.7973 140.047 12.8293 139.577 12.68C139.577 13.064 139.428 13.352 139.129 13.544C138.831 13.7147 138.489 13.8 138.105 13.8C137.721 13.8 137.38 13.7147 137.081 13.544C136.804 13.352 136.665 13.064 136.665 12.68C136.601 12.936 136.409 13.1067 136.089 13.192C135.791 13.2773 135.439 13.2987 135.033 13.256C134.628 13.192 134.244 13.0853 133.881 12.936C133.903 13.2133 133.807 13.4693 133.593 13.704C134.063 13.8107 134.5 14.0027 134.905 14.28C135.311 14.5573 135.46 14.8347 135.353 15.112C135.417 14.8133 135.599 14.6107 135.897 14.504C136.196 14.3973 136.516 14.3867 136.857 14.472C137.199 14.536 137.487 14.6747 137.721 14.888C137.956 15.1013 138.041 15.3573 137.977 15.656C138.127 15.4853 138.361 15.4533 138.681 15.56C139.023 15.6453 139.375 15.8267 139.737 16.104C140.121 16.36 140.473 16.6587 140.793 17C141.113 17.32 141.348 17.64 141.497 17.96C141.647 18.2587 141.647 18.4933 141.497 18.664C141.945 18.6427 142.276 18.7387 142.489 18.952C142.703 19.1653 142.809 19.4107 142.809 19.688C142.831 19.9653 142.735 20.2107 142.521 20.424C142.329 20.6373 142.02 20.7547 141.593 20.776C141.849 20.968 141.945 21.2347 141.881 21.576C141.839 21.9173 141.689 22.248 141.433 22.568C141.199 22.888 140.921 23.1227 140.601 23.272C140.303 23.4 140.015 23.368 139.737 23.176C139.908 23.56 139.919 23.8907 139.769 24.168C139.62 24.4453 139.396 24.648 139.097 24.776C138.799 24.904 138.489 24.9147 138.169 24.808C137.871 24.7013 137.647 24.4667 137.497 24.104C137.54 24.488 137.348 24.7973 136.921 25.032C136.516 25.2667 135.972 25.4053 135.289 25.448C134.607 25.4907 133.871 25.416 133.081 25.224C132.313 25.032 131.567 24.712 130.841 24.264ZM145.3 22.248C144.852 22.248 144.511 22.0667 144.276 21.704C144.063 21.3413 143.956 20.9253 143.956 20.456C143.956 19.9867 144.063 19.5813 144.276 19.24C144.511 18.8773 144.852 18.696 145.3 18.696C145.215 18.0987 145.279 17.6827 145.492 17.448C145.727 17.2133 145.972 17.1813 146.228 17.352C146.506 17.5227 146.687 17.9067 146.772 18.504C146.772 18.0773 146.922 17.768 147.22 17.576C147.519 17.3627 147.871 17.256 148.276 17.256C148.682 17.256 149.034 17.3627 149.332 17.576C149.631 17.768 149.78 18.0773 149.78 18.504C150.079 18.0987 150.367 17.896 150.644 17.896C150.943 17.896 151.146 18.0347 151.252 18.312C151.359 18.5893 151.274 18.9307 150.996 19.336C151.359 19.336 151.647 19.4853 151.86 19.784C152.074 20.0827 152.212 20.456 152.276 20.904C152.362 21.3307 152.362 21.768 152.276 22.216C152.212 22.6427 152.074 23.0053 151.86 23.304C151.647 23.6027 151.359 23.752 150.996 23.752C151.21 24.2853 151.263 24.68 151.156 24.936C151.05 25.1707 150.868 25.2347 150.612 25.128C150.356 25.0427 150.122 24.7333 149.908 24.2C149.908 24.5627 149.759 24.8507 149.46 25.064C149.162 25.2773 148.778 25.384 148.308 25.384C147.86 25.4053 147.402 25.3093 146.932 25.096C146.484 24.904 146.1 24.5733 145.78 24.104C145.482 23.6133 145.322 22.9947 145.3 22.248Z" fill="#9370db"/>
</svg>
